<?xml version="1.0" encoding="utf-8"?>
<!-- Generator: Adobe Illustrator 16.0.3, SVG Export Plug-In . SVG Version: 6.00 Build 0)  -->
<!DOCTYPE svg PUBLIC "-//W3C//DTD SVG 1.1//EN" "http://www.w3.org/Graphics/SVG/1.1/DTD/svg11.dtd" [
	<!ENTITY st0 "fill:#232323;">
	<!ENTITY st1 "clip-path:url(#SVGID_2_);">
	<!ENTITY st2 "fill:#3B449B;">
	<!ENTITY st3 "clip-path:url(#SVGID_2_);fill:#3B449B;">
]>
<svg version="1.1" id="Layer_1" xmlns="http://www.w3.org/2000/svg" xmlns:xlink="http://www.w3.org/1999/xlink" x="0px" y="0px"
	 width="595.28px" height="329.805px" viewBox="0 0 595.28 329.805" style="enable-background:new 0 0 595.28 329.805;"
	 xml:space="preserve">
<g>
	<defs>
		<rect id="SVGID_1_" width="595.28" height="329.805"/>
	</defs>
	<clipPath id="SVGID_2_">
		<use xlink:href="#SVGID_1_"  style="overflow:visible;"/>
	</clipPath>
	<g style="&st1;">
		<rect y="82.108" style="&st2;" width="3.476" height="3.426"/>
		<rect y="91.244" style="&st2;" width="3.476" height="3.424"/>
		<rect y="100.709" style="&st2;" width="3.476" height="3.425"/>
		<rect x="8.336" y="100.709" style="&st2;" width="3.476" height="3.425"/>
		<rect x="16.67" y="100.709" style="&st2;" width="3.477" height="3.425"/>
		<rect x="25.006" y="100.709" style="&st2;" width="3.477" height="3.425"/>
		<rect x="33.341" y="100.709" style="&st2;" width="3.476" height="3.425"/>
		<rect x="41.676" y="100.709" style="&st2;" width="3.476" height="3.425"/>
		<rect x="16.67" y="109.846" style="&st2;" width="3.477" height="3.425"/>
		<rect x="16.67" y="119.669" style="&st2;" width="3.477" height="3.425"/>
		<rect x="25.006" y="119.669" style="&st2;" width="3.477" height="3.425"/>
		<rect y="128.805" style="&st2;" width="3.476" height="3.425"/>
		<rect x="8.336" y="128.805" style="&st2;" width="3.476" height="3.425"/>
		<rect x="25.006" y="128.805" style="&st2;" width="3.477" height="3.425"/>
		<rect x="33.341" y="128.805" style="&st2;" width="3.476" height="3.425"/>
		<rect x="41.676" y="128.805" style="&st2;" width="3.476" height="3.425"/>
		<rect y="138.271" style="&st2;" width="3.476" height="3.425"/>
		<rect x="8.336" y="138.271" style="&st2;" width="3.476" height="3.425"/>
		<rect x="16.67" y="138.271" style="&st2;" width="3.477" height="3.425"/>
		<rect x="25.006" y="138.271" style="&st2;" width="3.477" height="3.425"/>
		<rect x="33.341" y="138.271" style="&st2;" width="3.476" height="3.425"/>
		<rect x="41.676" y="138.271" style="&st2;" width="3.476" height="3.425"/>
		<rect y="147.407" style="&st2;" width="3.476" height="3.425"/>
		<rect x="16.67" y="147.407" style="&st2;" width="3.477" height="3.425"/>
		<rect x="25.006" y="147.407" style="&st2;" width="3.477" height="3.425"/>
		<rect y="155.635" style="&st2;" width="3.476" height="3.425"/>
		<rect x="8.336" y="82.108" style="&st0;" width="3.476" height="3.426"/>
		<rect x="16.67" y="82.108" style="&st0;" width="3.477" height="3.426"/>
		<rect x="8.336" y="91.244" style="&st0;" width="3.476" height="3.424"/>
		<rect x="16.67" y="91.244" style="&st0;" width="3.477" height="3.424"/>
		<rect x="25.006" y="109.846" style="&st0;" width="3.477" height="3.425"/>
		<rect x="16.67" y="128.805" style="&st0;" width="3.477" height="3.425"/>
		<rect x="8.336" y="147.407" style="&st0;" width="3.476" height="3.425"/>
		<rect x="8.336" y="155.635" style="&st0;" width="3.476" height="3.425"/>
	</g>
	<g style="&st1;">
		<g>
			<rect x="591.805" y="102.32" style="&st2;" width="3.476" height="3.425"/>
			<rect x="591.805" y="93.185" style="&st2;" width="3.476" height="3.425"/>
			<rect x="591.805" y="83.718" style="&st2;" width="3.476" height="3.426"/>
			<rect x="583.468" y="83.718" style="&st2;" width="3.477" height="3.426"/>
			<rect x="575.134" y="83.718" style="&st2;" width="3.477" height="3.426"/>
			<rect x="566.797" y="83.718" style="&st2;" width="3.479" height="3.426"/>
			<rect x="558.464" y="83.718" style="&st2;" width="3.477" height="3.426"/>
			<rect x="575.134" y="74.583" style="&st2;" width="3.477" height="3.425"/>
			<rect x="583.525" y="74.583" style="&st2;" width="3.478" height="3.425"/>
			<rect x="575.134" y="64.759" style="&st2;" width="3.477" height="3.425"/>
			<rect x="583.48" y="64.759" style="&st2;" width="3.477" height="3.425"/>
			<rect x="566.797" y="64.759" style="&st2;" width="3.479" height="3.425"/>
			<rect x="591.805" y="55.623" style="&st2;" width="3.476" height="3.426"/>
			<rect x="583.468" y="55.623" style="&st2;" width="3.477" height="3.426"/>
			<rect x="566.797" y="55.623" style="&st2;" width="3.479" height="3.426"/>
			<rect x="558.464" y="55.623" style="&st2;" width="3.477" height="3.426"/>
			<rect x="591.805" y="46.157" style="&st2;" width="3.476" height="3.425"/>
			<rect x="583.468" y="46.157" style="&st2;" width="3.477" height="3.425"/>
			<rect x="575.134" y="46.157" style="&st2;" width="3.477" height="3.425"/>
			<rect x="566.797" y="46.157" style="&st2;" width="3.479" height="3.425"/>
			<rect x="558.464" y="46.157" style="&st2;" width="3.477" height="3.425"/>
			<rect x="591.805" y="37.021" style="&st2;" width="3.476" height="3.425"/>
			<rect x="575.134" y="37.021" style="&st2;" width="3.477" height="3.425"/>
			<rect x="566.797" y="37.021" style="&st2;" width="3.479" height="3.425"/>
			<rect x="591.805" y="28.793" style="&st2;" width="3.476" height="3.425"/>
		</g>
		<rect x="583.468" y="102.32" style="&st0;" width="3.477" height="3.425"/>
		<rect x="575.134" y="102.32" style="&st0;" width="3.477" height="3.425"/>
		<rect x="583.468" y="93.185" style="&st0;" width="3.477" height="3.425"/>
		<rect x="575.134" y="93.185" style="&st0;" width="3.477" height="3.425"/>
		<rect x="566.797" y="74.583" style="&st0;" width="3.479" height="3.425"/>
		<rect x="575.134" y="55.623" style="&st0;" width="3.477" height="3.426"/>
		<rect x="583.468" y="37.021" style="&st0;" width="3.477" height="3.425"/>
		<rect x="583.468" y="28.793" style="&st0;" width="3.477" height="3.425"/>
	</g>
	<g style="&st1;">
		
			<rect x="548.114" y="137.401" transform="matrix(0.5625 0.8268 -0.8268 0.5625 433.7093 -350.8951)" style="&st2;" width="0.632" height="193.961"/>
		
			<rect x="501.332" y="193.034" transform="matrix(0.5632 0.8263 -0.8263 0.5632 458.7536 -287.8434)" style="&st2;" width="0.633" height="193.961"/>
		
			<rect x="526.397" y="183.306" transform="matrix(0.5632 0.8263 -0.8263 0.5632 467.8238 -315.2322)" style="&st2;" width="11.38" height="203.175"/>
	</g>
	<rect x="-6.991" y="-23.713" style="&st3;" width="14.352" height="71.582"/>
	<rect x="27.143" y="259.29" style="&st3;" width="6.908" height="50.495"/>
</g>
</svg>
