<?xml version="1.0" encoding="utf-8"?>
<!-- Generator: Adobe Illustrator 16.0.3, SVG Export Plug-In . SVG Version: 6.00 Build 0)  -->
<!DOCTYPE svg PUBLIC "-//W3C//DTD SVG 1.1//EN" "http://www.w3.org/Graphics/SVG/1.1/DTD/svg11.dtd" [
	<!ENTITY st0 "fill:#4A4A4A;">
	<!ENTITY st1 "fill:#313E96;">
	<!ENTITY st2 "fill:#010101;">
	<!ENTITY st3 "fill:none;stroke:#3C459C;stroke-miterlimit:10;">
	<!ENTITY st4 "fill:#07090A;">
	<!ENTITY st5 "fill:#3C459C;">
]>
<svg version="1.1" id="syed_sami_logo" xmlns="http://www.w3.org/2000/svg" xmlns:xlink="http://www.w3.org/1999/xlink" x="0px"
	 y="0px" width="554.719px" height="1212.036px" viewBox="0 0 554.719 1212.036"
	 style="enable-background:new 0 0 554.719 1212.036;" xml:space="preserve">
<g id="icon">
	<polygon id="l-r-border" style="&st4;" points="409.518,329.769 286.057,329.769 266.212,343.189 422.938,343.189 422.938,237.194 
		409.518,246.272 	"/>
	<polygon id="l-b-border" style="&st4;" points="158.096,329.769 158.096,253.429 144.675,254.186 144.675,343.189 177.419,343.189 
		185.706,329.769 	"/>
	<polygon id="r-t-border" style="&st4;" points="409.518,78.348 409.518,154.772 422.938,154.015 422.938,64.927 390.864,64.927 
		382.592,78.348 	"/>
	<polygon id="l-t-border" style="&st4;" points="158.096,78.348 282,78.348 301.854,64.927 144.675,64.927 144.675,171.169 
		158.096,162.099 	"/>
	<polygon id="s_spark" style="&st1;" points="478.164,186.347 137.819,205.519 373.689,46.072 288.962,183.521 456.476,173.953 
		477.973,159.42 313.886,168.674 417.88,0 90.161,221.514 430.451,202.499 194.614,361.927 279.3,224.644 111.872,234.083 
		90.378,248.618 254.481,239.485 150.425,407.999 	"/>
</g>
<line id="slash" style="&st3;" x1="474.791" y1="706.182" x2="109.455" y2="955.153"/>
<g id="syed">
	<path style="&st5;" d="M144.995,656.146c7.92,5.603,16.517,5.796,19.704,5.506c4.057-0.29,7.533-3.188,7.147-6.954
		c-0.29-3.96-3.284-5.699-7.147-7.051c-10.818-3.961-20.477-9.466-20.477-21.057s8.017-20.477,19.511-21.057
		c3.573-0.192,8.307-0.192,17.192,2.898l-1.738,13.329c-7.631-3.091-11.978-2.994-14.103-2.897
		c-4.926,0.289-7.147,3.863-6.857,7.727c0.387,3.863,3.767,5.603,7.728,6.954c10.721,3.96,19.993,10.142,19.993,21.153
		c0,11.494-7.92,20.283-20.863,20.959c-3.863,0.29-12.46-0.192-21.828-5.022L144.995,656.146z"/>
	<path style="&st5;" d="M233.755,643.977l-24.051-37.959h16.807l14.102,23.761l14.103-23.761h16.902l-24.146,37.959v31.102h-13.716
		V643.977z"/>
	<path style="&st5;" d="M298.85,675.078v-69.061h34.578v13.813h-20.767v13.812h18.158v13.813h-18.158v13.812h21.926v13.813H298.85z"
		/>
	<path style="&st5;" d="M387.417,675.078h-20.573v-69.061h20.573C433.393,606.018,433.393,675.078,387.417,675.078z M380.655,619.83
		v41.436h6.762c26.851,0,26.851-41.436,0-41.436H380.655z"/>
</g>
<g id="sami">
	<path style="&st2;" d="M12.771,860.964c16.112,11.396,33.6,11.789,40.083,11.2c8.252-0.59,15.326-6.484,14.54-14.147
		c-0.589-8.056-6.68-11.593-14.54-14.344C30.849,835.617,11.2,824.417,11.2,800.839s16.309-41.655,39.69-42.834
		c7.27-0.394,16.898-0.394,34.975,5.895l-3.537,27.115c-15.522-6.288-24.364-6.091-28.687-5.895
		c-10.021,0.589-14.54,7.859-13.951,15.719c0.786,7.859,7.663,11.396,15.719,14.147c21.81,8.056,40.673,20.631,40.673,43.03
		c0,23.382-16.112,41.263-42.441,42.638c-7.859,0.59-25.347-0.393-44.406-10.217L12.771,860.964z"/>
	<path style="&st2;" d="M205.524,753.878h2.947l59.144,145.598H235.98l-5.698-15.13h-46.567l-5.502,15.13h-31.831L205.524,753.878z
		 M219.868,858.017l-12.771-36.547l-13.165,36.547H219.868z"/>
	<path style="&st2;" d="M446.418,756.826h8.842v142.649h-28.49l0.196-78.398l-35.957,37.726l-35.957-37.726v78.398h-28.491V756.826
		h9.039l55.409,61.696L446.418,756.826z"/>
	<path style="&st2;" d="M526.191,899.476V758.987h28.098v140.488H526.191z"/>
</g>
<rect id="hr" x="273.502" y="977.764" style="&st5;" width="36.534" height="21.648"/>
<g id="graphic_designer_and_fron_end_dev">
	<path style="&st0;" d="M85.03,1097.609h5.058v10.245c-2.829,3.115-6.873,4.672-12.131,4.672c-4.43,0-8.138-1.457-11.124-4.372
		c-2.986-2.915-4.479-6.602-4.479-11.06s1.522-8.173,4.565-11.146c3.043-2.972,6.723-4.458,11.038-4.458
		c4.314,0,7.901,1.258,10.759,3.772l-2.701,3.857c-1.172-1-2.351-1.692-3.536-2.079c-1.187-0.386-2.565-0.578-4.137-0.578
		c-3.029,0-5.573,0.979-7.63,2.937c-2.058,1.958-3.086,4.529-3.086,7.716s1,5.744,3.001,7.673c2,1.929,4.422,2.894,7.266,2.894
		c2.843,0,5.222-0.614,7.137-1.843V1097.609z"/>
	<path style="&st0;" d="M120.651,1091.95c0,4.945-2.158,8.06-6.473,9.346l7.845,10.888h-6.43l-7.159-10.073h-6.644v10.073h-5.058
		v-29.964h11.145c4.572,0,7.844,0.771,9.817,2.315C119.666,1086.078,120.651,1088.55,120.651,1091.95z M113.922,1096.194
		c1.028-0.886,1.543-2.308,1.543-4.265c0-1.958-0.529-3.301-1.586-4.03c-1.058-0.729-2.943-1.093-5.659-1.093h-6.43v10.717h6.301
		C110.949,1097.523,112.893,1097.081,113.922,1096.194z"/>
	<path style="&st0;" d="M132.183,1105.368l-3,6.815h-5.401l13.203-29.964h5.4l13.203,29.964h-5.401l-3-6.815H132.183z
		 M145.129,1100.695l-5.444-12.346l-5.444,12.346H145.129z"/>
	<path style="&st0;" d="M179.978,1084.835c2.086,1.743,3.13,4.43,3.13,8.059c0,3.63-1.065,6.287-3.194,7.974
		s-5.394,2.528-9.795,2.528h-5.315v8.788h-5.058v-29.964h10.288C174.577,1082.22,177.892,1083.092,179.978,1084.835z
		 M176.398,1097.202c1.014-1.072,1.521-2.644,1.521-4.716c0-2.071-0.643-3.536-1.929-4.394s-3.301-1.286-6.044-1.286h-5.145v12.003
		h5.873C173.477,1098.81,175.384,1098.273,176.398,1097.202z"/>
	<path style="&st0;" d="M189.065,1112.184v-29.964h5.058v12.989h14.875v-12.989h5.059v29.964h-5.059v-12.26h-14.875v12.26H189.065z"
		/>
	<path style="&st0;" d="M222.372,1082.22h5.058v29.964h-5.058V1082.22z"/>
	<path style="&st0;" d="M249.42,1107.597c1.743,0,3.243-0.293,4.501-0.879c1.258-0.585,2.572-1.521,3.944-2.808l3.258,3.344
		c-3.172,3.515-7.023,5.272-11.553,5.272s-8.288-1.457-11.273-4.372c-2.987-2.915-4.479-6.602-4.479-11.06s1.521-8.173,4.564-11.146
		c3.044-2.972,6.887-4.458,11.531-4.458c4.644,0,8.523,1.715,11.639,5.144l-3.215,3.516c-1.43-1.372-2.78-2.329-4.052-2.872
		s-2.765-0.814-4.479-0.814c-3.029,0-5.572,0.979-7.63,2.937c-2.058,1.958-3.086,4.458-3.086,7.501c0,3.044,1.021,5.588,3.064,7.631
		S246.619,1107.597,249.42,1107.597z"/>
	<path style="&st0;" d="M301.717,1086.143c2.887,2.614,4.33,6.252,4.33,10.909c0,4.658-1.4,8.345-4.201,11.06
		s-7.088,4.072-12.859,4.072h-9.945v-29.964h10.288C294.701,1082.22,298.83,1083.527,301.717,1086.143z M300.945,1097.181
		c0-6.859-3.93-10.288-11.788-10.288h-5.059v20.533h5.616c3.629,0,6.408-0.864,8.337-2.594
		C299.981,1103.104,300.945,1100.553,300.945,1097.181z"/>
	<path style="&st0;" d="M333.609,1082.22v4.759H317.62v7.93h14.36v4.501h-14.36v8.017h16.504v4.758h-21.562v-29.964H333.609z"/>
	<path style="&st0;" d="M349.663,1086.164c-1.473,0-2.68,0.3-3.622,0.899c-0.943,0.601-1.415,1.508-1.415,2.723
		s0.472,2.144,1.415,2.786c0.942,0.643,2.95,1.336,6.022,2.079c3.071,0.743,5.386,1.786,6.944,3.129
		c1.557,1.344,2.336,3.322,2.336,5.938c0,2.614-0.986,4.736-2.958,6.365s-4.559,2.443-7.759,2.443
		c-4.687,0-8.845-1.614-12.474-4.844l3.172-3.815c3.029,2.63,6.173,3.944,9.431,3.944c1.629,0,2.922-0.35,3.879-1.051
		c0.958-0.699,1.437-1.629,1.437-2.786s-0.45-2.058-1.351-2.7c-0.9-0.644-2.45-1.229-4.65-1.758
		c-2.201-0.528-3.873-1.014-5.016-1.457c-1.144-0.443-2.158-1.021-3.044-1.736c-1.771-1.343-2.657-3.4-2.657-6.173
		c0-2.771,1.007-4.908,3.021-6.408c2.016-1.501,4.508-2.251,7.48-2.251c1.914,0,3.815,0.314,5.701,0.943
		c1.887,0.629,3.516,1.515,4.887,2.657l-2.7,3.815c-0.887-0.8-2.087-1.457-3.601-1.972
		C352.627,1086.421,351.134,1086.164,349.663,1086.164z"/>
	<path style="&st0;" d="M367.602,1082.22h5.058v29.964h-5.058V1082.22z"/>
	<path style="&st0;" d="M401.723,1097.609h5.059v10.245c-2.829,3.115-6.874,4.672-12.132,4.672c-4.43,0-8.138-1.457-11.123-4.372
		c-2.987-2.915-4.479-6.602-4.479-11.06s1.521-8.173,4.564-11.146c3.044-2.972,6.723-4.458,11.038-4.458s7.901,1.258,10.76,3.772
		l-2.7,3.857c-1.173-1-2.352-1.692-3.537-2.079c-1.186-0.386-2.565-0.578-4.137-0.578c-3.029,0-5.572,0.979-7.63,2.937
		c-2.058,1.958-3.086,4.529-3.086,7.716s1,5.744,3,7.673s4.422,2.894,7.267,2.894c2.843,0,5.222-0.614,7.137-1.843V1097.609z"/>
	<path style="&st0;" d="M435.887,1082.22h5.059v29.964h-5.487l-16.976-21.862v21.862h-5.058v-29.964h5.058l17.404,22.377V1082.22z"
		/>
	<path style="&st0;" d="M470.309,1082.22v4.759h-15.989v7.93h14.36v4.501h-14.36v8.017h16.504v4.758h-21.562v-29.964H470.309z"/>
	<path style="&st0;" d="M501.215,1091.95c0,4.945-2.158,8.06-6.473,9.346l7.845,10.888h-6.43l-7.159-10.073h-6.645v10.073h-5.058
		v-29.964h11.146c4.571,0,7.844,0.771,9.816,2.315C500.229,1086.078,501.215,1088.55,501.215,1091.95z M494.485,1096.194
		c1.028-0.886,1.543-2.308,1.543-4.265c0-1.958-0.529-3.301-1.586-4.03c-1.058-0.729-2.943-1.093-5.658-1.093h-6.431v10.717h6.302
		C491.513,1097.523,493.456,1097.081,494.485,1096.194z"/>
	<path style="&st0;" d="M16.701,1148.986v8.23h13.289v4.672H16.701v12.346h-5.058v-29.964h19.976l-0.043,4.716H16.701z"/>
	<path style="&st0;" d="M61.453,1154.001c0,4.945-2.158,8.06-6.473,9.346l7.845,10.888h-6.43l-7.159-10.073h-6.644v10.073h-5.058
		v-29.964h11.145c4.572,0,7.845,0.771,9.816,2.315C60.466,1148.129,61.453,1150.601,61.453,1154.001z M54.723,1158.245
		c1.029-0.886,1.543-2.308,1.543-4.265c0-1.958-0.529-3.301-1.586-4.03c-1.058-0.729-2.944-1.093-5.659-1.093h-6.43v10.717h6.301
		C51.75,1159.574,53.694,1159.132,54.723,1158.245z"/>
	<path style="&st0;" d="M93.816,1170.098c-3.029,2.958-6.773,4.437-11.231,4.437s-8.202-1.479-11.231-4.437
		c-3.029-2.958-4.544-6.645-4.544-11.06s1.515-8.102,4.544-11.06c3.029-2.958,6.773-4.437,11.231-4.437s8.202,1.479,11.231,4.437
		c3.029,2.958,4.544,6.645,4.544,11.06S96.845,1167.14,93.816,1170.098z M90.108,1151.344c-2.043-2.114-4.551-3.172-7.523-3.172
		c-2.973,0-5.48,1.058-7.523,3.172c-2.043,2.115-3.065,4.68-3.065,7.694c0,3.016,1.021,5.58,3.065,7.694
		c2.042,2.115,4.55,3.173,7.523,3.173c2.972,0,5.479-1.058,7.523-3.173c2.043-2.114,3.065-4.679,3.065-7.694
		C93.173,1156.023,92.151,1153.459,90.108,1151.344z"/>
	<path style="&st0;" d="M127.209,1144.271h5.059v29.964h-5.487l-16.975-21.862v21.862h-5.058v-29.964h5.058l17.403,22.377V1144.271z
		"/>
	<path style="&st0;" d="M151.9,1148.9v25.334h-5.058V1148.9h-9.088v-4.63h23.233v4.63H151.9z"/>
	<path style="&st0;" d="M162.959,1163.689v-4.501h14.232v4.501H162.959z"/>
	<path style="&st0;" d="M205.482,1144.271v4.759h-15.989v7.93h14.36v4.501h-14.36v8.017h16.504v4.758h-21.562v-29.964H205.482z"/>
	<path style="&st0;" d="M234.932,1144.271h5.059v29.964h-5.487l-16.976-21.862v21.862h-5.058v-29.964h5.058l17.404,22.377V1144.271z
		"/>
	<path style="&st0;" d="M270.981,1148.193c2.887,2.614,4.33,6.252,4.33,10.909c0,4.658-1.4,8.345-4.201,11.06
		s-7.088,4.072-12.859,4.072h-9.945v-29.964h10.288C263.966,1144.271,268.095,1145.578,270.981,1148.193z M270.21,1159.231
		c0-6.859-3.93-10.288-11.788-10.288h-5.059v20.533h5.616c3.629,0,6.408-0.864,8.337-2.594
		C269.246,1165.154,270.21,1162.604,270.21,1159.231z"/>
	<path style="&st0;" d="M316.248,1148.193c2.887,2.614,4.33,6.252,4.33,10.909c0,4.658-1.4,8.345-4.201,11.06
		s-7.088,4.072-12.859,4.072h-9.945v-29.964h10.288C309.232,1144.271,313.361,1145.578,316.248,1148.193z M315.477,1159.231
		c0-6.859-3.93-10.288-11.788-10.288h-5.059v20.533h5.616c3.629,0,6.408-0.864,8.337-2.594
		C314.513,1165.154,315.477,1162.604,315.477,1159.231z"/>
	<path style="&st0;" d="M348.141,1144.271v4.759h-15.989v7.93h14.36v4.501h-14.36v8.017h16.504v4.758h-21.562v-29.964H348.141z"/>
	<path style="&st0;" d="M368.802,1174.234h-5.658l-12.045-29.964h5.658l9.216,22.377l9.217-22.377h5.658L368.802,1174.234z"/>
	<path style="&st0;" d="M406.181,1144.271v4.759h-15.989v7.93h14.36v4.501h-14.36v8.017h16.504v4.758h-21.562v-29.964H406.181z"/>
	<path style="&st0;" d="M413.169,1174.234v-29.964h5.058v25.163h13.675v4.801H413.169z"/>
	<path style="&st0;" d="M461.65,1170.098c-3.029,2.958-6.772,4.437-11.23,4.437s-8.202-1.479-11.231-4.437s-4.543-6.645-4.543-11.06
		s1.514-8.102,4.543-11.06s6.773-4.437,11.231-4.437s8.201,1.479,11.23,4.437s4.544,6.645,4.544,11.06
		S464.68,1167.14,461.65,1170.098z M457.943,1151.344c-2.044-2.114-4.552-3.172-7.523-3.172c-2.973,0-5.48,1.058-7.523,3.172
		c-2.043,2.115-3.064,4.68-3.064,7.694c0,3.016,1.021,5.58,3.064,7.694c2.043,2.115,4.551,3.173,7.523,3.173
		c2.972,0,5.479-1.058,7.523-3.173c2.042-2.114,3.064-4.679,3.064-7.694C461.008,1156.023,459.985,1153.459,457.943,1151.344z"/>
	<path style="&st0;" d="M492.813,1146.886c2.086,1.743,3.13,4.43,3.13,8.059c0,3.63-1.065,6.287-3.194,7.974
		s-5.394,2.528-9.795,2.528h-5.315v8.788h-5.058v-29.964h10.288C487.413,1144.271,490.728,1145.143,492.813,1146.886z
		 M489.234,1159.253c1.014-1.072,1.521-2.644,1.521-4.716c0-2.071-0.643-3.536-1.929-4.394s-3.301-1.286-6.044-1.286h-5.145v12.003
		h5.873C486.313,1160.86,488.22,1160.324,489.234,1159.253z"/>
	<path style="&st0;" d="M522.948,1144.271v4.759h-15.989v7.93h14.36v4.501h-14.36v8.017h16.504v4.758h-21.562v-29.964H522.948z"/>
	<path style="&st0;" d="M553.854,1154.001c0,4.945-2.158,8.06-6.473,9.346l7.845,10.888h-6.43l-7.159-10.073h-6.645v10.073h-5.058
		v-29.964h11.146c4.571,0,7.844,0.771,9.816,2.315C552.869,1148.129,553.854,1150.601,553.854,1154.001z M547.125,1158.245
		c1.028-0.886,1.543-2.308,1.543-4.265c0-1.958-0.529-3.301-1.586-4.03c-1.058-0.729-2.943-1.093-5.658-1.093h-6.431v10.717h6.302
		C544.152,1159.574,546.096,1159.132,547.125,1158.245z"/>
</g>
</svg>
